<svg width="102" height="82" viewBox="0 0 102 82" fill="none" xmlns="http://www.w3.org/2000/svg">
<path d="M83.0217 21.5229C83.0217 42.5098 65.5527 78.0229 52.0217 78.0229C38.4907 78.0229 17.0217 42.5098 17.0217 21.5229C17.0217 0.536129 38.4907 0 52.0217 0C65.5527 0 83.0217 0.536129 83.0217 21.5229Z" fill="url(#paint0_linear_228_331)"/>
<path d="M99.25 55.9506C91.2235 69.9521 64.655 86.2004 52.916 79.4709C41.1771 72.7415 39.6038 40.3607 47.6302 26.3592C55.6567 12.3577 71.7828 18.7706 83.5217 25.5C95.2606 32.2294 107.276 41.9491 99.25 55.9506Z" fill="url(#paint1_linear_228_331)"/>
<path d="M54.4481 27.1359C62.8429 40.9197 64.2638 72.0305 52.7074 79.0687C41.151 86.107 12.0258 71.8692 3.63097 58.0854C-4.76385 44.3015 5.46531 33.0382 17.0217 26C28.5781 18.9618 46.0533 13.3521 54.4481 27.1359Z" fill="url(#paint2_linear_228_331)"/>
<defs>
<linearGradient id="paint0_linear_228_331" x1="52.3565" y1="0" x2="52.3565" y2="81.0397" gradientUnits="userSpaceOnUse">
<stop stop-color="#EB93BF"/>
<stop offset="1" stop-color="#EB93BF" stop-opacity="0"/>
</linearGradient>
<linearGradient id="paint1_linear_228_331" x1="97.9946" y1="38.1055" x2="6.51099" y2="27.5923" gradientUnits="userSpaceOnUse">
<stop offset="0.00520833" stop-color="#63C9B4"/>
<stop offset="0.6875" stop-color="#63C9B4" stop-opacity="0"/>
</linearGradient>
<linearGradient id="paint2_linear_228_331" x1="13.5217" y1="67.5" x2="53.0217" y2="41.5" gradientUnits="userSpaceOnUse">
<stop offset="0.140625" stop-color="#FFE866"/>
<stop offset="1" stop-color="#FFE866" stop-opacity="0"/>
</linearGradient>
</defs>
</svg>
