<svg xmlns="http://www.w3.org/2000/svg" width="299" height="82" fill="none" viewBox="0 0 299 82"><path fill="url(#paint0_linear_228_332)" d="M82.0217 21.5229C82.0217 42.5098 64.5527 78.0229 51.0217 78.0229C37.4908 78.0229 16.0217 42.5098 16.0217 21.5229C16.0217 0.536129 37.4908 0 51.0217 0C64.5527 0 82.0217 0.536129 82.0217 21.5229Z"/><path fill="url(#paint1_linear_228_332)" d="M100.321 50.2066C94.3761 65.2106 70.3993 85.0854 57.8199 80.1008C45.2405 75.1162 39.0605 43.2917 45.0059 28.2877C50.9512 13.2838 67.8276 17.3288 80.407 22.3134C92.9864 27.298 106.267 35.2027 100.321 50.2066Z"/><path fill="url(#paint2_linear_228_332)" d="M56.0629 29.3777C62.9226 43.9863 60.9808 75.0688 48.7329 80.82C36.485 86.5712 9.0647 69.2761 2.20499 54.6676C-4.65472 40.059 6.72922 29.9642 18.9771 24.213C31.225 18.4618 49.2032 14.7691 56.0629 29.3777Z"/><path fill="#000" d="M44.009 64.221C43.4623 64.221 42.9977 64.098 42.615 63.852C42.2323 63.6333 42.041 63.1413 42.041 62.376C42.041 61.884 42.123 61.4467 42.287 61.064C42.451 60.7087 42.7517 60.531 43.189 60.531C43.7083 60.531 44.2687 60.3943 44.87 60.121C45.4987 59.875 46.1 59.465 46.674 58.891C47.2753 58.3443 47.781 57.6473 48.191 56.8C48.6283 55.9527 48.929 54.955 49.093 53.807L42.164 37.899C42.0547 37.7077 42 37.5163 42 37.325C42 36.9697 42.1503 36.6417 42.451 36.341C42.779 36.013 43.1617 35.7533 43.599 35.562C44.0363 35.3707 44.4463 35.275 44.829 35.275C45.1023 35.275 45.362 35.3433 45.608 35.48C45.8813 35.5893 46.059 35.7807 46.141 36.054L51.307 49.379L55.776 36.054C55.858 35.7807 56.022 35.5893 56.268 35.48C56.514 35.3433 56.76 35.275 57.006 35.275C57.334 35.275 57.7167 35.3707 58.154 35.562C58.6187 35.7533 59.015 36.013 59.343 36.341C59.6983 36.6417 59.876 36.997 59.876 37.407C59.876 37.6257 59.835 37.7897 59.753 37.899L53.603 53.93C53.1657 55.1053 52.7147 56.2943 52.25 57.497C51.7853 58.727 51.2113 59.8477 50.528 60.859C49.872 61.8703 49.011 62.6767 47.945 63.278C46.9063 63.9067 45.5943 64.221 44.009 64.221Z"/><path fill="#000" d="M70.0072 55.324C68.4765 55.324 67.0552 54.955 65.7432 54.217C64.4585 53.4517 63.4335 52.454 62.6682 51.224C61.9028 49.9667 61.5202 48.641 61.5202 47.247V36.997C61.5202 36.6417 61.7252 36.3137 62.1352 36.013C62.5725 35.7123 63.0918 35.562 63.6932 35.562C64.2672 35.562 64.7592 35.7123 65.1692 36.013C65.6065 36.3137 65.8252 36.6417 65.8252 36.997V47.247C65.8252 47.9577 66.0028 48.641 66.3582 49.297C66.7408 49.953 67.2465 50.486 67.8752 50.896C68.5312 51.306 69.2418 51.511 70.0072 51.511C70.7725 51.511 71.4695 51.306 72.0982 50.896C72.7268 50.486 73.2188 49.953 73.5742 49.297C73.9568 48.641 74.1482 47.9577 74.1482 47.247V36.956C74.1482 36.5733 74.3668 36.2453 74.8042 35.972C75.2688 35.6987 75.7745 35.562 76.3212 35.562C76.9498 35.562 77.4555 35.6987 77.8382 35.972C78.2482 36.2453 78.4532 36.5733 78.4532 36.956V47.247C78.4532 48.6957 78.0705 50.035 77.3052 51.265C76.5398 52.495 75.5148 53.479 74.2302 54.217C72.9455 54.955 71.5378 55.324 70.0072 55.324Z"/><path fill="#000" d="M84.0167 54.996C83.4153 54.996 82.9097 54.8457 82.4997 54.545C82.117 54.2443 81.9257 53.9163 81.9257 53.561V36.956C81.9257 36.546 82.117 36.218 82.4997 35.972C82.9097 35.6987 83.4153 35.562 84.0167 35.562C84.5633 35.562 85.028 35.6987 85.4107 35.972C85.7933 36.218 85.9847 36.546 85.9847 36.956V38.76C86.2853 38.186 86.6817 37.6393 87.1737 37.12C87.693 36.6007 88.2943 36.177 88.9777 35.849C89.661 35.4937 90.399 35.316 91.1917 35.316H92.5037C92.941 35.316 93.3237 35.5073 93.6517 35.89C93.9797 36.2453 94.1437 36.6827 94.1437 37.202C94.1437 37.7213 93.9797 38.1723 93.6517 38.555C93.3237 38.9377 92.941 39.129 92.5037 39.129H91.1917C90.3717 39.129 89.579 39.375 88.8137 39.867C88.0483 40.359 87.4197 41.056 86.9277 41.958C86.463 42.8327 86.2307 43.8987 86.2307 45.156V53.561C86.2307 53.9163 86.012 54.2443 85.5747 54.545C85.1647 54.8457 84.6453 54.996 84.0167 54.996Z"/><path fill="#000" d="M97.932 30.683C97.2487 30.683 96.661 30.4507 96.169 29.986C95.677 29.5213 95.431 29.002 95.431 28.428C95.431 27.7993 95.677 27.2663 96.169 26.829C96.661 26.3917 97.2487 26.173 97.932 26.173C98.6153 26.173 99.1893 26.3917 99.654 26.829C100.146 27.2663 100.392 27.7993 100.392 28.428C100.392 29.002 100.146 29.5213 99.654 29.986C99.1893 30.4507 98.6153 30.683 97.932 30.683ZM97.932 54.996C97.3033 54.996 96.784 54.8457 96.374 54.545C95.9913 54.2443 95.8 53.9163 95.8 53.561V36.956C95.8 36.546 95.9913 36.218 96.374 35.972C96.784 35.6987 97.3033 35.562 97.932 35.562C98.5333 35.562 99.039 35.6987 99.449 35.972C99.8863 36.218 100.105 36.546 100.105 36.956V53.561C100.105 53.9163 99.8863 54.2443 99.449 54.545C99.039 54.8457 98.5333 54.996 97.932 54.996Z"/><path fill="#000" d="M109.694 55.324C108.354 55.324 107.152 55.16 106.086 54.832C105.02 54.504 104.172 54.094 103.544 53.602C102.942 53.0827 102.642 52.5633 102.642 52.044C102.642 51.798 102.696 51.5247 102.806 51.224C102.942 50.9233 103.12 50.6637 103.339 50.445C103.585 50.2263 103.844 50.117 104.118 50.117C104.473 50.117 104.842 50.281 105.225 50.609C105.635 50.9097 106.168 51.224 106.824 51.552C107.48 51.8527 108.395 52.003 109.571 52.003C110.937 52.003 111.853 51.7707 112.318 51.306C112.81 50.8413 113.056 50.3357 113.056 49.789C113.056 49.0783 112.81 48.5317 112.318 48.149C111.853 47.739 111.238 47.411 110.473 47.165C109.735 46.919 108.942 46.6867 108.095 46.468C107.247 46.222 106.441 45.9077 105.676 45.525C104.938 45.1423 104.323 44.6093 103.831 43.926C103.366 43.2427 103.134 42.3407 103.134 41.22C103.134 40.2907 103.366 39.375 103.831 38.473C104.295 37.5437 105.033 36.792 106.045 36.218C107.083 35.6167 108.464 35.316 110.186 35.316C111.224 35.316 112.208 35.4253 113.138 35.644C114.067 35.8627 114.832 36.1633 115.434 36.546C116.035 36.9013 116.336 37.2977 116.336 37.735C116.336 37.9263 116.267 38.1997 116.131 38.555C115.994 38.883 115.803 39.1837 115.557 39.457C115.338 39.703 115.051 39.826 114.696 39.826C114.422 39.826 114.081 39.7303 113.671 39.539C113.261 39.3203 112.782 39.1153 112.236 38.924C111.689 38.7327 111.019 38.637 110.227 38.637C109.434 38.637 108.792 38.7737 108.3 39.047C107.835 39.293 107.493 39.5937 107.275 39.949C107.056 40.3043 106.947 40.6597 106.947 41.015C106.947 41.6163 107.179 42.081 107.644 42.409C108.108 42.737 108.723 43.0103 109.489 43.229C110.254 43.4477 111.06 43.68 111.908 43.926C112.755 44.1447 113.548 44.4727 114.286 44.91C115.051 45.3473 115.666 45.935 116.131 46.673C116.623 47.411 116.869 48.395 116.869 49.625C116.869 51.347 116.24 52.7273 114.983 53.766C113.753 54.8047 111.99 55.324 109.694 55.324Z"/><path fill="#000" d="M134.845 55.324C132.877 55.324 131.25 54.9687 129.966 54.258C128.708 53.5473 127.779 52.577 127.178 51.347C126.576 50.117 126.276 48.723 126.276 47.165V43.475C126.276 41.9443 126.576 40.564 127.178 39.334C127.779 38.0767 128.708 37.0927 129.966 36.382C131.223 35.6713 132.822 35.316 134.763 35.316C136.02 35.316 137.113 35.4663 138.043 35.767C138.999 36.0677 139.737 36.4503 140.257 36.915C140.803 37.3523 141.077 37.817 141.077 38.309C141.077 38.555 140.995 38.8557 140.831 39.211C140.694 39.539 140.489 39.826 140.216 40.072C139.97 40.2907 139.669 40.4 139.314 40.4C139.04 40.4 138.74 40.2907 138.412 40.072C138.111 39.8533 137.701 39.6483 137.182 39.457C136.662 39.2383 135.965 39.129 135.091 39.129C133.56 39.129 132.426 39.5117 131.688 40.277C130.95 41.0423 130.581 42.1083 130.581 43.475V47.165C130.581 48.5317 130.95 49.5977 131.688 50.363C132.426 51.1283 133.574 51.511 135.132 51.511C136.034 51.511 136.744 51.4017 137.264 51.183C137.783 50.937 138.193 50.7047 138.494 50.486C138.822 50.2673 139.136 50.158 139.437 50.158C139.819 50.158 140.147 50.2673 140.421 50.486C140.721 50.7047 140.94 50.978 141.077 51.306C141.241 51.634 141.323 51.9347 141.323 52.208C141.323 52.6727 141.036 53.151 140.462 53.643C139.915 54.135 139.15 54.545 138.166 54.873C137.209 55.1737 136.102 55.324 134.845 55.324Z"/><path fill="#000" d="M151.037 55.324C149.561 55.324 148.18 54.9413 146.896 54.176C145.611 53.4107 144.572 52.413 143.78 51.183C143.014 49.9257 142.632 48.5863 142.632 47.165V43.393C142.632 41.9443 143.001 40.605 143.739 39.375C144.504 38.145 145.529 37.161 146.814 36.423C148.126 35.685 149.547 35.316 151.078 35.316C152.608 35.316 154.016 35.685 155.301 36.423C156.585 37.1337 157.61 38.104 158.376 39.334C159.168 40.5367 159.565 41.8897 159.565 43.393V47.165C159.565 48.559 159.168 49.8847 158.376 51.142C157.61 52.3993 156.572 53.4107 155.26 54.176C153.975 54.9413 152.567 55.324 151.037 55.324ZM151.078 51.511C151.843 51.511 152.54 51.306 153.169 50.896C153.797 50.486 154.303 49.953 154.686 49.297C155.068 48.6137 155.26 47.903 155.26 47.165V43.393C155.26 42.6823 155.068 41.999 154.686 41.343C154.303 40.687 153.797 40.154 153.169 39.744C152.54 39.334 151.843 39.129 151.078 39.129C150.285 39.129 149.574 39.334 148.946 39.744C148.344 40.154 147.852 40.687 147.47 41.343C147.114 41.999 146.937 42.6823 146.937 43.393V47.165C146.937 47.903 147.114 48.6137 147.47 49.297C147.852 49.953 148.358 50.486 148.987 50.896C149.615 51.306 150.312 51.511 151.078 51.511Z"/><path fill="#000" d="M168.967 55.324C167.682 55.324 166.493 54.9413 165.4 54.176C164.307 53.4107 163.418 52.413 162.735 51.183C162.079 49.9257 161.751 48.5863 161.751 47.165V43.393C161.751 41.8897 162.079 40.5367 162.735 39.334C163.418 38.104 164.307 37.1337 165.4 36.423C166.493 35.685 167.71 35.316 169.049 35.316C170.361 35.316 171.468 35.644 172.37 36.3C173.272 36.9287 173.942 37.6393 174.379 38.432V25.394C174.379 24.984 174.598 24.656 175.035 24.41C175.472 24.1367 175.992 24 176.593 24C177.194 24 177.686 24.1367 178.069 24.41C178.479 24.656 178.684 24.984 178.684 25.394V53.561C178.684 53.9163 178.479 54.2443 178.069 54.545C177.686 54.8457 177.194 54.996 176.593 54.996C176.074 54.996 175.609 54.8457 175.199 54.545C174.816 54.2443 174.625 53.9163 174.625 53.561V52.126C174.215 52.9733 173.491 53.725 172.452 54.381C171.413 55.0097 170.252 55.324 168.967 55.324ZM170.197 51.511C170.99 51.511 171.7 51.2923 172.329 50.855C172.958 50.4177 173.45 49.9393 173.805 49.42C174.188 48.8733 174.379 48.436 174.379 48.108V43.393C174.379 42.491 174.174 41.7257 173.764 41.097C173.354 40.4683 172.835 39.99 172.206 39.662C171.577 39.3067 170.921 39.129 170.238 39.129C169.473 39.129 168.762 39.334 168.106 39.744C167.477 40.154 166.972 40.687 166.589 41.343C166.234 41.999 166.056 42.6823 166.056 43.393V47.165C166.056 47.8757 166.234 48.5727 166.589 49.256C166.972 49.9393 167.477 50.486 168.106 50.896C168.735 51.306 169.432 51.511 170.197 51.511Z"/><path fill="#000" d="M184.541 30.683C183.858 30.683 183.27 30.4507 182.778 29.986C182.286 29.5213 182.04 29.002 182.04 28.428C182.04 27.7993 182.286 27.2663 182.778 26.829C183.27 26.3917 183.858 26.173 184.541 26.173C185.225 26.173 185.799 26.3917 186.263 26.829C186.755 27.2663 187.001 27.7993 187.001 28.428C187.001 29.002 186.755 29.5213 186.263 29.986C185.799 30.4507 185.225 30.683 184.541 30.683ZM184.541 54.996C183.913 54.996 183.393 54.8457 182.983 54.545C182.601 54.2443 182.409 53.9163 182.409 53.561V36.956C182.409 36.546 182.601 36.218 182.983 35.972C183.393 35.6987 183.913 35.562 184.541 35.562C185.143 35.562 185.648 35.6987 186.058 35.972C186.496 36.218 186.714 36.546 186.714 36.956V53.561C186.714 53.9163 186.496 54.2443 186.058 54.545C185.648 54.8457 185.143 54.996 184.541 54.996Z"/><path fill="#000" d="M192.49 54.996C191.861 54.996 191.342 54.8457 190.932 54.545C190.549 54.2443 190.358 53.9163 190.358 53.561V36.956C190.358 36.546 190.549 36.218 190.932 35.972C191.342 35.6987 191.861 35.562 192.49 35.562C193.009 35.562 193.46 35.6987 193.843 35.972C194.226 36.218 194.417 36.546 194.417 36.956V38.432C194.827 37.6393 195.497 36.9287 196.426 36.3C197.383 35.644 198.544 35.316 199.911 35.316C201.196 35.316 202.371 35.685 203.437 36.423C204.53 37.1337 205.405 38.104 206.061 39.334C206.717 40.5367 207.045 41.8897 207.045 43.393V53.561C207.045 54.0257 206.813 54.381 206.348 54.627C205.911 54.873 205.419 54.996 204.872 54.996C204.38 54.996 203.902 54.873 203.437 54.627C202.972 54.381 202.74 54.0257 202.74 53.561V43.393C202.74 42.6823 202.549 41.999 202.166 41.343C201.811 40.687 201.319 40.154 200.69 39.744C200.061 39.334 199.364 39.129 198.599 39.129C197.943 39.129 197.314 39.3067 196.713 39.662C196.112 39.99 195.62 40.4683 195.237 41.097C194.854 41.7257 194.663 42.491 194.663 43.393V53.561C194.663 53.9163 194.444 54.2443 194.007 54.545C193.597 54.8457 193.091 54.996 192.49 54.996Z"/><path fill="#000" d="M217.857 64.221C216.272 64.221 214.81 63.9887 213.47 63.524C212.131 63.0867 211.065 62.4443 210.272 61.597C209.48 60.7497 209.083 59.7383 209.083 58.563C209.083 57.4697 209.398 56.554 210.026 55.816C210.655 55.1053 211.393 54.5587 212.24 54.176C211.694 53.93 211.243 53.602 210.887 53.192C210.532 52.782 210.354 52.208 210.354 51.47C210.354 50.7047 210.546 50.0897 210.928 49.625C211.311 49.1603 211.803 48.7367 212.404 48.354C211.639 47.7527 211.038 47.0147 210.6 46.14C210.19 45.238 209.985 44.254 209.985 43.188V42.04C209.985 40.728 210.3 39.5663 210.928 38.555C211.557 37.5437 212.445 36.751 213.593 36.177C214.769 35.603 216.108 35.316 217.611 35.316C218.541 35.316 219.402 35.439 220.194 35.685C221.014 35.931 221.739 36.2727 222.367 36.71C222.805 35.6987 223.242 34.988 223.679 34.578C224.144 34.168 224.581 33.963 224.991 33.963C225.565 33.963 226.003 34.127 226.303 34.455C226.604 34.783 226.754 35.111 226.754 35.439C226.754 35.6577 226.686 35.8627 226.549 36.054C226.44 36.218 226.276 36.3547 226.057 36.464C225.784 36.6007 225.456 36.792 225.073 37.038C224.718 37.2567 224.363 37.612 224.007 38.104C224.472 38.6233 224.814 39.2247 225.032 39.908C225.251 40.5913 225.36 41.302 225.36 42.04V43.188C225.36 44.4727 225.032 45.6343 224.376 46.673C223.72 47.7117 222.805 48.5317 221.629 49.133C220.454 49.707 219.115 49.994 217.611 49.994C216.545 49.994 215.602 49.83 214.782 49.502C214.564 49.6387 214.372 49.8027 214.208 49.994C214.072 50.158 214.003 50.3767 214.003 50.65C214.003 51.142 214.304 51.4973 214.905 51.716C215.507 51.9347 216.272 52.0987 217.201 52.208C218.158 52.3173 219.169 52.454 220.235 52.618C221.301 52.782 222.299 53.0553 223.228 53.438C224.185 53.7933 224.964 54.3263 225.565 55.037C226.167 55.775 226.467 56.7727 226.467 58.03C226.467 59.4513 226.071 60.613 225.278 61.515C224.486 62.4443 223.433 63.1277 222.121 63.565C220.837 64.0023 219.415 64.221 217.857 64.221ZM217.775 61.351C219.115 61.351 220.194 61.0503 221.014 60.449C221.862 59.875 222.285 59.1097 222.285 58.153C222.285 57.4697 222.08 56.9367 221.67 56.554C221.26 56.1713 220.727 55.8843 220.071 55.693C219.415 55.5017 218.718 55.365 217.98 55.283C217.27 55.201 216.586 55.119 215.93 55.037C215.165 55.3103 214.509 55.693 213.962 56.185C213.443 56.7043 213.183 57.3467 213.183 58.112C213.183 59.1233 213.607 59.916 214.454 60.49C215.329 61.064 216.436 61.351 217.775 61.351ZM217.693 47.247C218.787 47.247 219.634 46.8643 220.235 46.099C220.864 45.3337 221.178 44.3633 221.178 43.188V42.04C221.178 40.9193 220.864 39.9763 220.235 39.211C219.634 38.4457 218.773 38.063 217.652 38.063C216.532 38.063 215.671 38.4457 215.069 39.211C214.468 39.9763 214.167 40.9193 214.167 42.04V43.147C214.167 44.295 214.468 45.2653 215.069 46.058C215.671 46.8507 216.545 47.247 217.693 47.247Z"/><path fill="#000" d="M244.017 55.324C242.049 55.324 240.423 54.9687 239.138 54.258C237.881 53.5473 236.951 52.577 236.35 51.347C235.749 50.117 235.448 48.723 235.448 47.165V43.475C235.448 41.9443 235.749 40.564 236.35 39.334C236.951 38.0767 237.881 37.0927 239.138 36.382C240.395 35.6713 241.994 35.316 243.935 35.316C245.192 35.316 246.286 35.4663 247.215 35.767C248.172 36.0677 248.91 36.4503 249.429 36.915C249.976 37.3523 250.249 37.817 250.249 38.309C250.249 38.555 250.167 38.8557 250.003 39.211C249.866 39.539 249.661 39.826 249.388 40.072C249.142 40.2907 248.841 40.4 248.486 40.4C248.213 40.4 247.912 40.2907 247.584 40.072C247.283 39.8533 246.873 39.6483 246.354 39.457C245.835 39.2383 245.138 39.129 244.263 39.129C242.732 39.129 241.598 39.5117 240.86 40.277C240.122 41.0423 239.753 42.1083 239.753 43.475V47.165C239.753 48.5317 240.122 49.5977 240.86 50.363C241.598 51.1283 242.746 51.511 244.304 51.511C245.206 51.511 245.917 51.4017 246.436 51.183C246.955 50.937 247.365 50.7047 247.666 50.486C247.994 50.2673 248.308 50.158 248.609 50.158C248.992 50.158 249.32 50.2673 249.593 50.486C249.894 50.7047 250.112 50.978 250.249 51.306C250.413 51.634 250.495 51.9347 250.495 52.208C250.495 52.6727 250.208 53.151 249.634 53.643C249.087 54.135 248.322 54.545 247.338 54.873C246.381 55.1737 245.274 55.324 244.017 55.324Z"/><path fill="#000" d="M255.243 54.996C254.614 54.996 254.095 54.8457 253.685 54.545C253.302 54.2443 253.111 53.9163 253.111 53.561V25.394C253.111 24.984 253.302 24.656 253.685 24.41C254.095 24.1367 254.614 24 255.243 24C255.844 24 256.35 24.1367 256.76 24.41C257.197 24.656 257.416 24.984 257.416 25.394V53.561C257.416 53.9163 257.197 54.2443 256.76 54.545C256.35 54.8457 255.844 54.996 255.243 54.996Z"/><path fill="#000" d="M269.733 55.324C268.203 55.324 266.781 54.955 265.469 54.217C264.185 53.4517 263.16 52.454 262.394 51.224C261.629 49.9667 261.246 48.641 261.246 47.247V36.997C261.246 36.6417 261.451 36.3137 261.861 36.013C262.299 35.7123 262.818 35.562 263.419 35.562C263.993 35.562 264.485 35.7123 264.895 36.013C265.333 36.3137 265.551 36.6417 265.551 36.997V47.247C265.551 47.9577 265.729 48.641 266.084 49.297C266.467 49.953 266.973 50.486 267.601 50.896C268.257 51.306 268.968 51.511 269.733 51.511C270.499 51.511 271.196 51.306 271.824 50.896C272.453 50.486 272.945 49.953 273.3 49.297C273.683 48.641 273.874 47.9577 273.874 47.247V36.956C273.874 36.5733 274.093 36.2453 274.53 35.972C274.995 35.6987 275.501 35.562 276.047 35.562C276.676 35.562 277.182 35.6987 277.564 35.972C277.974 36.2453 278.179 36.5733 278.179 36.956V47.247C278.179 48.6957 277.797 50.035 277.031 51.265C276.266 52.495 275.241 53.479 273.956 54.217C272.672 54.955 271.264 55.324 269.733 55.324Z"/><path fill="#000" d="M291.41 55.324C290.125 55.324 288.963 55.0097 287.925 54.381C286.913 53.725 286.189 52.9733 285.752 52.126V53.561C285.752 53.9163 285.56 54.2443 285.178 54.545C284.795 54.8457 284.33 54.996 283.784 54.996C283.182 54.996 282.677 54.8457 282.267 54.545C281.884 54.2443 281.693 53.9163 281.693 53.561V25.394C281.693 24.984 281.884 24.656 282.267 24.41C282.677 24.1367 283.182 24 283.784 24C284.412 24 284.932 24.1367 285.342 24.41C285.779 24.656 285.998 24.984 285.998 25.394V38.432C286.435 37.6393 287.105 36.9287 288.007 36.3C288.909 35.644 290.002 35.316 291.287 35.316C292.626 35.316 293.842 35.685 294.936 36.423C296.056 37.1337 296.945 38.104 297.601 39.334C298.284 40.5367 298.626 41.8897 298.626 43.393V47.165C298.626 48.5863 298.284 49.9257 297.601 51.183C296.945 52.413 296.07 53.4107 294.977 54.176C293.883 54.9413 292.694 55.324 291.41 55.324ZM290.18 51.511C290.918 51.511 291.601 51.306 292.23 50.896C292.858 50.486 293.364 49.9393 293.747 49.256C294.129 48.5727 294.321 47.8757 294.321 47.165V43.393C294.321 42.6823 294.129 41.999 293.747 41.343C293.364 40.687 292.858 40.154 292.23 39.744C291.601 39.334 290.904 39.129 290.139 39.129C289.455 39.129 288.799 39.3067 288.171 39.662C287.542 39.99 287.023 40.4683 286.613 41.097C286.203 41.7257 285.998 42.491 285.998 43.393V48.108C285.998 48.436 286.175 48.8733 286.531 49.42C286.913 49.9393 287.419 50.4177 288.048 50.855C288.676 51.2923 289.387 51.511 290.18 51.511Z"/><defs><linearGradient id="paint0_linear_228_332" x1="49.772" x2="49" y1="0" y2="78" gradientUnits="userSpaceOnUse"><stop stop-color="#EB93BF"/><stop offset="1" stop-color="#EB93BF" stop-opacity="0"/></linearGradient><linearGradient id="paint1_linear_228_332" x1="97.91" x2="12.137" y1="47.958" y2="52.899" gradientUnits="userSpaceOnUse"><stop stop-color="#63C9B4"/><stop offset=".703" stop-color="#63C9B4" stop-opacity="0"/></linearGradient><linearGradient id="paint2_linear_228_332" x1="11.023" x2="53.096" y1="65.094" y2="43.504" gradientUnits="userSpaceOnUse"><stop offset=".141" stop-color="#FFE866"/><stop offset="1" stop-color="#FFE866" stop-opacity="0"/></linearGradient></defs></svg>