<svg width="70" height="37" viewBox="0 0 70 37" fill="none" xmlns="http://www.w3.org/2000/svg">
<g filter="url(#filter0_d_402_315)">
<path d="M15.476 31.316C14.78 31.316 14.132 31.172 13.532 30.884C12.956 30.596 12.668 30.164 12.668 29.588V20.552C12.668 20.36 12.62 20.192 12.524 20.048L5.072 7.7C5.048 7.628 5.024 7.556 5 7.484C5 7.412 5 7.352 5 7.304C5 6.848 5.204 6.452 5.612 6.116C6.044 5.78 6.56 5.516 7.16 5.324C7.76 5.108 8.312 5 8.816 5C9.272 5 9.608 5.096 9.824 5.288C10.04 5.456 10.244 5.708 10.436 6.044L15.476 15.296L20.48 6.044C20.672 5.708 20.876 5.456 21.092 5.288C21.308 5.096 21.644 5 22.1 5C22.628 5 23.18 5.108 23.756 5.324C24.356 5.516 24.86 5.78 25.268 6.116C25.7 6.452 25.916 6.848 25.916 7.304C25.916 7.352 25.916 7.412 25.916 7.484C25.916 7.556 25.892 7.628 25.844 7.7L18.428 20.048C18.332 20.192 18.284 20.36 18.284 20.552V29.588C18.284 30.164 17.984 30.596 17.384 30.884C16.808 31.172 16.172 31.316 15.476 31.316Z" fill="url(#paint0_linear_402_315)"/>
<path d="M35.8942 31.532C34.3342 31.532 32.8942 31.256 31.5742 30.704C30.2542 30.152 29.1982 29.252 28.4062 28.004C27.6382 26.756 27.2542 25.1 27.2542 23.036V13.496C27.2542 11.432 27.6382 9.776 28.4062 8.528C29.1982 7.28 30.2542 6.38 31.5742 5.828C32.8942 5.276 34.3342 5 35.8942 5C37.6222 5 39.1582 5.288 40.5022 5.864C41.8702 6.416 42.9502 7.22 43.7422 8.276C44.5342 9.332 44.9302 10.628 44.9302 12.164C44.9302 13.244 44.7022 13.964 44.2462 14.324C43.7902 14.66 43.0822 14.828 42.1222 14.828C41.3782 14.828 40.7302 14.708 40.1782 14.468C39.6502 14.228 39.3622 13.784 39.3142 13.136C39.3142 12.896 39.2782 12.596 39.2062 12.236C39.1582 11.876 39.0382 11.516 38.8462 11.156C38.6542 10.796 38.3422 10.496 37.9102 10.256C37.4782 10.016 36.8782 9.896 36.1102 9.896C35.0782 9.896 34.2742 10.196 33.6982 10.796C33.1462 11.372 32.8702 12.272 32.8702 13.496V23.036C32.8702 24.26 33.1582 25.172 33.7342 25.772C34.3102 26.348 35.1142 26.636 36.1462 26.636C36.8662 26.636 37.4302 26.516 37.8382 26.276C38.2702 26.036 38.5822 25.736 38.7742 25.376C38.9662 24.992 39.0982 24.596 39.1702 24.188C39.2422 23.78 39.2902 23.396 39.3142 23.036C39.3622 22.364 39.6502 21.92 40.1782 21.704C40.7302 21.464 41.3662 21.344 42.0862 21.344C43.0702 21.344 43.7902 21.524 44.2462 21.884C44.7022 22.22 44.9302 22.928 44.9302 24.008C44.9302 25.592 44.5342 26.948 43.7422 28.076C42.9502 29.204 41.8702 30.068 40.5022 30.668C39.1582 31.244 37.6222 31.532 35.8942 31.532Z" fill="url(#paint1_linear_402_315)"/>
<path d="M56.109 31.532C54.549 31.532 53.109 31.256 51.789 30.704C50.469 30.152 49.413 29.252 48.621 28.004C47.853 26.756 47.469 25.1 47.469 23.036V13.496C47.469 11.432 47.853 9.776 48.621 8.528C49.413 7.28 50.469 6.38 51.789 5.828C53.109 5.276 54.549 5 56.109 5C57.837 5 59.373 5.288 60.717 5.864C62.085 6.416 63.165 7.22 63.957 8.276C64.749 9.332 65.145 10.628 65.145 12.164C65.145 13.244 64.917 13.964 64.461 14.324C64.005 14.66 63.297 14.828 62.337 14.828C61.593 14.828 60.945 14.708 60.393 14.468C59.865 14.228 59.577 13.784 59.529 13.136C59.529 12.896 59.493 12.596 59.421 12.236C59.373 11.876 59.253 11.516 59.061 11.156C58.869 10.796 58.557 10.496 58.125 10.256C57.693 10.016 57.093 9.896 56.325 9.896C55.293 9.896 54.489 10.196 53.913 10.796C53.361 11.372 53.085 12.272 53.085 13.496V23.036C53.085 24.26 53.373 25.172 53.949 25.772C54.525 26.348 55.329 26.636 56.361 26.636C57.081 26.636 57.645 26.516 58.053 26.276C58.485 26.036 58.797 25.736 58.989 25.376C59.181 24.992 59.313 24.596 59.385 24.188C59.457 23.78 59.505 23.396 59.529 23.036C59.577 22.364 59.865 21.92 60.393 21.704C60.945 21.464 61.581 21.344 62.301 21.344C63.285 21.344 64.005 21.524 64.461 21.884C64.917 22.22 65.145 22.928 65.145 24.008C65.145 25.592 64.749 26.948 63.957 28.076C63.165 29.204 62.085 30.068 60.717 30.668C59.373 31.244 57.837 31.532 56.109 31.532Z" fill="url(#paint2_linear_402_315)"/>
<path d="M13.4202 31.1076L13.4202 31.1076L13.4238 31.1094C14.0591 31.4143 14.7443 31.566 15.476 31.566C16.2069 31.566 16.881 31.4146 17.494 31.1085C17.822 30.9508 18.0843 30.7459 18.2643 30.4866C18.4462 30.2247 18.534 29.9219 18.534 29.588V20.552C18.534 20.4037 18.5703 20.2852 18.636 20.1867L18.6362 20.1868L18.6423 20.1767L26.0556 7.83331C26.1233 7.72994 26.166 7.61235 26.166 7.484V7.48358V7.48315V7.48273V7.48231V7.48189V7.48147V7.48105V7.48063V7.48021V7.47979V7.47937V7.47896V7.47854V7.47812V7.4777V7.47728V7.47687V7.47645V7.47603V7.47562V7.4752V7.47478V7.47437V7.47395V7.47354V7.47312V7.47271V7.47229V7.47188V7.47147V7.47105V7.47064V7.47023V7.46981V7.4694V7.46899V7.46858V7.46817V7.46775V7.46734V7.46693V7.46652V7.46611V7.4657V7.46529V7.46488V7.46447V7.46406V7.46366V7.46325V7.46284V7.46243V7.46202V7.46162V7.46121V7.4608V7.4604V7.45999V7.45959V7.45918V7.45878V7.45837V7.45797V7.45756V7.45716V7.45675V7.45635V7.45595V7.45554V7.45514V7.45474V7.45434V7.45393V7.45353V7.45313V7.45273V7.45233V7.45193V7.45153V7.45113V7.45073V7.45033V7.44993V7.44953V7.44913V7.44873V7.44833V7.44794V7.44754V7.44714V7.44675V7.44635V7.44595V7.44556V7.44516V7.44476V7.44437V7.44397V7.44358V7.44318V7.44279V7.4424V7.442V7.44161V7.44122V7.44082V7.44043V7.44004V7.43965V7.43925V7.43886V7.43847V7.43808V7.43769V7.4373V7.43691V7.43652V7.43613V7.43574V7.43535V7.43496V7.43457V7.43419V7.4338V7.43341V7.43302V7.43264V7.43225V7.43186V7.43148V7.43109V7.4307V7.43032V7.42993V7.42955V7.42916V7.42878V7.4284V7.42801V7.42763V7.42724V7.42686V7.42648V7.4261V7.42571V7.42533V7.42495V7.42457V7.42419V7.42381V7.42343V7.42305V7.42267V7.42229V7.42191V7.42153V7.42115V7.42077V7.42039V7.42001V7.41964V7.41926V7.41888V7.4185V7.41813V7.41775V7.41738V7.417V7.41662V7.41625V7.41587V7.4155V7.41512V7.41475V7.41438V7.414V7.41363V7.41326V7.41288V7.41251V7.41214V7.41177V7.41139V7.41102V7.41065V7.41028V7.40991V7.40954V7.40917V7.4088V7.40843V7.40806V7.40769V7.40732V7.40696V7.40659V7.40622V7.40585V7.40548V7.40512V7.40475V7.40438V7.40402V7.40365V7.40329V7.40292V7.40255V7.40219V7.40183V7.40146V7.4011V7.40073V7.40037V7.40001V7.39964V7.39928V7.39892V7.39856V7.39819V7.39783V7.39747V7.39711V7.39675V7.39639V7.39603V7.39567V7.39531V7.39495V7.39459V7.39423V7.39387V7.39352V7.39316V7.3928V7.39244V7.39209V7.39173V7.39137V7.39102V7.39066V7.3903V7.38995V7.38959V7.38924V7.38888V7.38853V7.38817V7.38782V7.38747V7.38711V7.38676V7.38641V7.38605V7.3857V7.38535V7.385V7.38465V7.3843V7.38395V7.38359V7.38324V7.38289V7.38254V7.38219V7.38185V7.3815V7.38115V7.3808V7.38045V7.3801V7.37976V7.37941V7.37906V7.37872V7.37837V7.37802V7.37768V7.37733V7.37699V7.37664V7.3763V7.37595V7.37561V7.37526V7.37492V7.37458V7.37423V7.37389V7.37355V7.3732V7.37286V7.37252V7.37218V7.37184V7.3715V7.37116V7.37082V7.37048V7.37014V7.3698V7.36946V7.36912V7.36878V7.36844V7.3681V7.36776V7.36743V7.36709V7.36675V7.36641V7.36608V7.36574V7.36541V7.36507V7.36473V7.3644V7.36406V7.36373V7.3634V7.36306V7.36273V7.36239V7.36206V7.36173V7.36139V7.36106V7.36073V7.3604V7.36007V7.35974V7.3594V7.35907V7.35874V7.35841V7.35808V7.35775V7.35742V7.35709V7.35677V7.35644V7.35611V7.35578V7.35545V7.35512V7.3548V7.35447V7.35414V7.35382V7.35349V7.35317V7.35284V7.35251V7.35219V7.35186V7.35154V7.35122V7.35089V7.35057V7.35024V7.34992V7.3496V7.34928V7.34895V7.34863V7.34831V7.34799V7.34767V7.34735V7.34703V7.34671V7.34639V7.34607V7.34575V7.34543V7.34511V7.34479V7.34447V7.34415V7.34383V7.34352V7.3432V7.34288V7.34257V7.34225V7.34193V7.34162V7.3413V7.34099V7.34067V7.34036V7.34004V7.33973V7.33941V7.3391V7.33878V7.33847V7.33816V7.33785V7.33753V7.33722V7.33691V7.3366V7.33629V7.33598V7.33566V7.33535V7.33504V7.33473V7.33442V7.33411V7.33381V7.3335V7.33319V7.33288V7.33257V7.33226V7.33196V7.33165V7.33134V7.33104V7.33073V7.33042V7.33012V7.32981V7.32951V7.3292V7.3289V7.32859V7.32829V7.32798V7.32768V7.32738V7.32707V7.32677V7.32647V7.32617V7.32586V7.32556V7.32526V7.32496V7.32466V7.32436V7.32406V7.32376V7.32346V7.32316V7.32286V7.32256V7.32226V7.32196V7.32167V7.32137V7.32107V7.32077V7.32048V7.32018V7.31988V7.31959V7.31929V7.31899V7.3187V7.3184V7.31811V7.31781V7.31752V7.31723V7.31693V7.31664V7.31635V7.31605V7.31576V7.31547V7.31518V7.31488V7.31459V7.3143V7.31401V7.31372V7.31343V7.31314V7.31285V7.31256V7.31227V7.31198V7.31169V7.3114V7.31112V7.31083V7.31054V7.31025V7.30997V7.30968V7.30939V7.30911V7.30882V7.30853V7.30825V7.30796V7.30768V7.30739V7.30711V7.30682V7.30654V7.30626V7.30597V7.30569V7.30541V7.30513V7.30484V7.30456V7.30428V7.304C26.166 6.75616 25.9018 6.29323 25.4243 5.92082C24.9894 5.56339 24.4588 5.28706 23.838 5.08776C23.2405 4.86436 22.6607 4.75 22.1 4.75C21.62 4.75 21.2139 4.84911 20.9322 5.09558C20.6847 5.2899 20.4632 5.56944 20.2629 5.91996L20.2629 5.91993L20.2601 5.92507L15.4752 14.7719L10.6555 5.92441L10.6556 5.92438L10.6531 5.91996C10.4528 5.56944 10.2313 5.2899 9.98377 5.09557C9.70213 4.84911 9.29596 4.75 8.816 4.75C8.27784 4.75 7.69823 4.86496 7.07953 5.08726C6.45753 5.28677 5.91585 5.56295 5.45851 5.91866L5.45846 5.91858L5.45307 5.92302C4.99766 6.29806 4.75 6.76096 4.75 7.304V7.30428V7.30456V7.30484V7.30513V7.30541V7.30569V7.30597V7.30626V7.30654V7.30682V7.30711V7.30739V7.30768V7.30796V7.30825V7.30853V7.30882V7.30911V7.30939V7.30968V7.30997V7.31025V7.31054V7.31083V7.31112V7.3114V7.31169V7.31198V7.31227V7.31256V7.31285V7.31314V7.31343V7.31372V7.31401V7.3143V7.31459V7.31488V7.31518V7.31547V7.31576V7.31605V7.31635V7.31664V7.31693V7.31723V7.31752V7.31781V7.31811V7.3184V7.3187V7.31899V7.31929V7.31959V7.31988V7.32018V7.32048V7.32077V7.32107V7.32137V7.32167V7.32196V7.32226V7.32256V7.32286V7.32316V7.32346V7.32376V7.32406V7.32436V7.32466V7.32496V7.32526V7.32556V7.32586V7.32617V7.32647V7.32677V7.32707V7.32738V7.32768V7.32798V7.32829V7.32859V7.3289V7.3292V7.32951V7.32981V7.33012V7.33042V7.33073V7.33104V7.33134V7.33165V7.33196V7.33226V7.33257V7.33288V7.33319V7.3335V7.33381V7.33411V7.33442V7.33473V7.33504V7.33535V7.33566V7.33598V7.33629V7.3366V7.33691V7.33722V7.33753V7.33785V7.33816V7.33847V7.33878V7.3391V7.33941V7.33973V7.34004V7.34036V7.34067V7.34099V7.3413V7.34162V7.34193V7.34225V7.34257V7.34288V7.3432V7.34352V7.34383V7.34415V7.34447V7.34479V7.34511V7.34543V7.34575V7.34607V7.34639V7.34671V7.34703V7.34735V7.34767V7.34799V7.34831V7.34863V7.34895V7.34928V7.3496V7.34992V7.35024V7.35057V7.35089V7.35122V7.35154V7.35186V7.35219V7.35251V7.35284V7.35317V7.35349V7.35382V7.35414V7.35447V7.3548V7.35512V7.35545V7.35578V7.35611V7.35644V7.35677V7.35709V7.35742V7.35775V7.35808V7.35841V7.35874V7.35907V7.3594V7.35974V7.36007V7.3604V7.36073V7.36106V7.36139V7.36173V7.36206V7.36239V7.36273V7.36306V7.3634V7.36373V7.36406V7.3644V7.36473V7.36507V7.36541V7.36574V7.36608V7.36641V7.36675V7.36709V7.36743V7.36776V7.3681V7.36844V7.36878V7.36912V7.36946V7.3698V7.37014V7.37048V7.37082V7.37116V7.3715V7.37184V7.37218V7.37252V7.37286V7.3732V7.37355V7.37389V7.37423V7.37458V7.37492V7.37526V7.37561V7.37595V7.3763V7.37664V7.37699V7.37733V7.37768V7.37802V7.37837V7.37872V7.37906V7.37941V7.37976V7.3801V7.38045V7.3808V7.38115V7.3815V7.38185V7.38219V7.38254V7.38289V7.38324V7.38359V7.38395V7.3843V7.38465V7.385V7.38535V7.3857V7.38605V7.38641V7.38676V7.38711V7.38747V7.38782V7.38817V7.38853V7.38888V7.38924V7.38959V7.38995V7.3903V7.39066V7.39102V7.39137V7.39173V7.39209V7.39244V7.3928V7.39316V7.39352V7.39387V7.39423V7.39459V7.39495V7.39531V7.39567V7.39603V7.39639V7.39675V7.39711V7.39747V7.39783V7.39819V7.39856V7.39892V7.39928V7.39964V7.40001V7.40037V7.40073V7.4011V7.40146V7.40183V7.40219V7.40255V7.40292V7.40329V7.40365V7.40402V7.40438V7.40475V7.40512V7.40548V7.40585V7.40622V7.40659V7.40696V7.40732V7.40769V7.40806V7.40843V7.4088V7.40917V7.40954V7.40991V7.41028V7.41065V7.41102V7.41139V7.41177V7.41214V7.41251V7.41288V7.41326V7.41363V7.414V7.41438V7.41475V7.41512V7.4155V7.41587V7.41625V7.41662V7.417V7.41738V7.41775V7.41813V7.4185V7.41888V7.41926V7.41964V7.42001V7.42039V7.42077V7.42115V7.42153V7.42191V7.42229V7.42267V7.42305V7.42343V7.42381V7.42419V7.42457V7.42495V7.42533V7.42571V7.4261V7.42648V7.42686V7.42724V7.42763V7.42801V7.4284V7.42878V7.42916V7.42955V7.42993V7.43032V7.4307V7.43109V7.43148V7.43186V7.43225V7.43264V7.43302V7.43341V7.4338V7.43419V7.43457V7.43496V7.43535V7.43574V7.43613V7.43652V7.43691V7.4373V7.43769V7.43808V7.43847V7.43886V7.43925V7.43965V7.44004V7.44043V7.44082V7.44122V7.44161V7.442V7.4424V7.44279V7.44318V7.44358V7.44397V7.44437V7.44476V7.44516V7.44556V7.44595V7.44635V7.44675V7.44714V7.44754V7.44794V7.44833V7.44873V7.44913V7.44953V7.44993V7.45033V7.45073V7.45113V7.45153V7.45193V7.45233V7.45273V7.45313V7.45353V7.45393V7.45434V7.45474V7.45514V7.45554V7.45595V7.45635V7.45675V7.45716V7.45756V7.45797V7.45837V7.45878V7.45918V7.45959V7.45999V7.4604V7.4608V7.46121V7.46162V7.46202V7.46243V7.46284V7.46325V7.46366V7.46406V7.46447V7.46488V7.46529V7.4657V7.46611V7.46652V7.46693V7.46734V7.46775V7.46817V7.46858V7.46899V7.4694V7.46981V7.47023V7.47064V7.47105V7.47147V7.47188V7.47229V7.47271V7.47312V7.47354V7.47395V7.47437V7.47478V7.4752V7.47562V7.47603V7.47645V7.47687V7.47728V7.4777V7.47812V7.47854V7.47896V7.47937V7.47979V7.48021V7.48063V7.48105V7.48147V7.48189V7.48231V7.48273V7.48315V7.48358V7.484V7.52457L4.76283 7.56305L4.83483 7.77906L4.84361 7.8054L4.85796 7.82917L12.31 20.1772L12.3097 20.1773L12.316 20.1867C12.3817 20.2852 12.418 20.4037 12.418 20.552V29.588C12.418 29.9197 12.5017 30.2212 12.676 30.4827C12.8493 30.7426 13.1025 30.9488 13.4202 31.1076ZM28.1933 28.135L28.1933 28.135L28.1951 28.138C29.0136 29.4276 30.1089 30.3622 31.4777 30.9346C32.8309 31.5005 34.3041 31.782 35.8942 31.782C37.65 31.782 39.2204 31.4893 40.6007 30.8978L40.6026 30.8969C42.0088 30.2802 43.1263 29.3882 43.9468 28.2197C44.7726 27.0435 45.1802 25.6355 45.1802 24.008C45.1802 22.9179 44.9549 22.0983 44.3979 21.6852C43.8762 21.2752 43.0889 21.094 42.0862 21.094C41.3395 21.094 40.6693 21.2183 40.0809 21.4737C39.7748 21.5994 39.5299 21.7956 39.3564 22.063C39.184 22.3288 39.091 22.6513 39.0648 23.0182L39.0647 23.0194C39.0414 23.3692 38.9947 23.7442 38.924 24.1446C38.8565 24.5269 38.7329 24.8989 38.5521 25.2612C38.387 25.5693 38.1145 25.8365 37.7168 26.0575L37.7167 26.0574L37.7114 26.0605C37.3569 26.2691 36.843 26.386 36.1462 26.386C35.163 26.386 34.4301 26.1133 33.9128 25.5971C33.3998 25.0615 33.1202 24.2242 33.1202 23.036V13.496C33.1202 12.303 33.3901 11.4788 33.8787 10.969C34.3967 10.4295 35.1289 10.146 36.1102 10.146C36.8571 10.146 37.409 10.2635 37.7888 10.4745C38.1877 10.6961 38.4606 10.9644 38.6256 11.2736C38.8053 11.6105 38.9148 11.9421 38.9584 12.269L38.9595 12.2771L38.961 12.285C39.0313 12.6364 39.0642 12.9187 39.0642 13.136V13.1452L39.0649 13.1545C39.1186 13.8802 39.452 14.4125 40.0747 14.6956L40.0747 14.6956L40.0785 14.6973C40.6685 14.9538 41.3518 15.078 42.1222 15.078C43.1021 15.078 43.8747 14.9082 44.3945 14.5253L44.3946 14.5254L44.4011 14.5202C44.9528 14.0847 45.1802 13.2592 45.1802 12.164C45.1802 10.5831 44.7718 9.23209 43.9422 8.126C43.1202 7.03001 42.0022 6.20015 40.5982 5.63317C39.2186 5.04234 37.6489 4.75 35.8942 4.75C34.3041 4.75 32.8309 5.03147 31.4777 5.59736C30.1089 6.16978 29.0136 7.10436 28.1951 8.39404L28.1933 8.39698C27.3931 9.69733 27.0042 11.4038 27.0042 13.496V23.036C27.0042 25.1282 27.3931 26.8347 28.1933 28.135ZM48.4081 28.135L48.41 28.138C49.2284 29.4276 50.3237 30.3622 51.6926 30.9346C53.0458 31.5005 54.5189 31.782 56.109 31.782C57.8648 31.782 59.4353 31.4893 60.8155 30.8978L60.8174 30.8969C62.2237 30.2802 63.3412 29.3882 64.1616 28.2197C64.9874 27.0435 65.395 25.6355 65.395 24.008C65.395 22.9179 65.1698 22.0983 64.6127 21.6852C64.0911 21.2752 63.3037 21.094 62.301 21.094C61.5544 21.094 60.8842 21.2183 60.2958 21.4737C59.9897 21.5994 59.7447 21.7956 59.5713 22.063C59.3989 22.3288 59.3059 22.6513 59.2797 23.0182L59.2796 23.0194C59.2563 23.3692 59.2095 23.7442 59.1388 24.1446C59.0714 24.5269 58.9477 24.8989 58.7669 25.2612C58.6018 25.5693 58.3293 25.8365 57.9316 26.0575L57.9316 26.0574L57.9263 26.0605C57.5717 26.2691 57.0579 26.386 56.361 26.386C55.3779 26.386 54.645 26.1133 54.1276 25.5971C53.6147 25.0615 53.335 24.2242 53.335 23.036V13.496C53.335 12.3031 53.6049 11.479 54.0934 10.9691C54.6114 10.4296 55.3436 10.146 56.325 10.146C57.072 10.146 57.6238 10.2635 58.0036 10.4745C58.4025 10.6961 58.6755 10.9644 58.8404 11.2736C59.0201 11.6105 59.1296 11.9421 59.1732 12.269L59.1743 12.2771L59.1759 12.285C59.2462 12.6364 59.279 12.9187 59.279 13.136V13.1452L59.2797 13.1545C59.3335 13.8802 59.6669 14.4125 60.2896 14.6956L60.2896 14.6956L60.2934 14.6973C60.8833 14.9538 61.5666 15.078 62.337 15.078C63.317 15.078 64.0896 14.9082 64.6093 14.5253L64.6094 14.5254L64.6159 14.5202C65.1676 14.0847 65.395 13.2592 65.395 12.164C65.395 10.5831 64.9866 9.23209 64.157 8.126C63.335 7.03001 62.2171 6.20015 60.8131 5.63317C59.4334 5.04234 57.8638 4.75 56.109 4.75C54.5189 4.75 53.0458 5.03147 51.6926 5.59736C50.3237 6.16978 49.2284 7.10436 48.4099 8.39403L48.4081 8.39698C47.6079 9.69733 47.219 11.4038 47.219 13.496V23.036C47.219 25.1282 47.6079 26.8347 48.4081 28.135Z" stroke="black" stroke-width="0.5"/>
</g>
<defs>
<filter id="filter0_d_402_315" x="0.5" y="0.5" width="69.145" height="35.532" filterUnits="userSpaceOnUse" color-interpolation-filters="sRGB">
<feFlood flood-opacity="0" result="BackgroundImageFix"/>
<feColorMatrix in="SourceAlpha" type="matrix" values="0 0 0 0 0 0 0 0 0 0 0 0 0 0 0 0 0 0 127 0" result="hardAlpha"/>
<feOffset/>
<feGaussianBlur stdDeviation="2"/>
<feComposite in2="hardAlpha" operator="out"/>
<feColorMatrix type="matrix" values="0 0 0 0 0 0 0 0 0 0 0 0 0 0 0 0 0 0 0.25 0"/>
<feBlend mode="normal" in2="BackgroundImageFix" result="effect1_dropShadow_402_315"/>
<feBlend mode="normal" in="SourceGraphic" in2="effect1_dropShadow_402_315" result="shape"/>
</filter>
<linearGradient id="paint0_linear_402_315" x1="-3.64404" y1="17.3159" x2="71.856" y2="17.3159" gradientUnits="userSpaceOnUse">
<stop stop-color="#EB93BF"/>
<stop offset="1" stop-color="#3FCAB7"/>
</linearGradient>
<linearGradient id="paint1_linear_402_315" x1="-3.64404" y1="17.3159" x2="71.856" y2="17.3159" gradientUnits="userSpaceOnUse">
<stop stop-color="#EB93BF"/>
<stop offset="1" stop-color="#3FCAB7"/>
</linearGradient>
<linearGradient id="paint2_linear_402_315" x1="-3.64404" y1="17.3159" x2="71.856" y2="17.3159" gradientUnits="userSpaceOnUse">
<stop stop-color="#EB93BF"/>
<stop offset="1" stop-color="#3FCAB7"/>
</linearGradient>
</defs>
</svg>
